<?xml version="1.0" encoding="UTF-8" standalone="no"?>
<!-- Created with Inkscape (http://www.inkscape.org/) -->

<svg
   xmlns:dc="http://purl.org/dc/elements/1.1/"
   xmlns:cc="http://creativecommons.org/ns#"
   xmlns:rdf="http://www.w3.org/1999/02/22-rdf-syntax-ns#"
   xmlns:svg="http://www.w3.org/2000/svg"
   xmlns="http://www.w3.org/2000/svg"
   xmlns:sodipodi="http://sodipodi.sourceforge.net/DTD/sodipodi-0.dtd"
   xmlns:inkscape="http://www.inkscape.org/namespaces/inkscape"
   width="64"
   height="64"
   viewBox="0 0 16.933333 16.933334"
   version="1.1"
   id="svg4962"
   inkscape:version="0.92.1 r"
   sodipodi:docname="logo.svg">
  <defs
     id="defs4956">
    <clipPath
       clipPathUnits="userSpaceOnUse"
       id="clipPath4899">
      <rect
         style="fill:#800000;fill-opacity:1;stroke-width:0.26458332"
         id="rect4901"
         width="105.83333"
         height="105.83333"
         x="68.791664"
         y="30.08334" />
    </clipPath>
  </defs>
  <sodipodi:namedview
     id="base"
     pagecolor="#ffffff"
     bordercolor="#666666"
     borderopacity="1.0"
     inkscape:pageopacity="0.0"
     inkscape:pageshadow="2"
     inkscape:zoom="5.6"
     inkscape:cx="55.808427"
     inkscape:cy="17.939168"
     inkscape:document-units="mm"
     inkscape:current-layer="layer1"
     showgrid="true"
     units="px">
    <inkscape:grid
       type="xygrid"
       id="grid4964" />
  </sodipodi:namedview>
  <metadata
     id="metadata4959">
    <rdf:RDF>
      <cc:Work
         rdf:about="">
        <dc:format>image/svg+xml</dc:format>
        <dc:type
           rdf:resource="http://purl.org/dc/dcmitype/StillImage" />
        <dc:title></dc:title>
      </cc:Work>
    </rdf:RDF>
  </metadata>
  <g
     inkscape:label="Layer 1"
     inkscape:groupmode="layer"
     id="layer1"
     transform="translate(0,-280.06665)">
    <rect
       transform="matrix(0.15997738,0,0,0.15997746,-11.00511,275.25638)"
       style="display:inline;fill:#007676;fill-opacity:1;stroke-width:0.26458332"
       id="rect4794"
       width="116.41666"
       height="116.41666"
       x="63.500011"
       y="24.791676"
       clip-path="url(#clipPath4899)" />
    <ellipse
       style="display:inline;fill:#ffffff;fill-opacity:1;stroke-width:0.06025415"
       id="path4802"
       cx="198.07271"
       cy="-210.07727"
       rx="9.0639067"
       ry="5.7679405"
       transform="rotate(134.99999)" />
    <path
       style="display:inline;fill:#007676;stroke-width:0.04232737"
       id="path4503"
       d="m 3.062067,292.48633 c 0.1666226,-0.15819 0.3211201,-0.32833 0.4666149,-0.50597 0.1676012,-0.18987 0.3170095,-0.39378 0.469559,-0.59554 0.1686153,-0.22386 0.3396552,-0.44583 0.5051384,-0.67202 0.1619191,-0.23028 0.3320074,-0.45427 0.5057781,-0.67562 0.1824624,-0.24485 0.3113595,-0.52126 0.4288481,-0.80135 0.1144272,-0.31218 0.2104521,-0.63039 0.3340923,-0.93922 0.1036484,-0.24975 0.2299572,-0.48897 0.3358369,-0.73775 0.1004556,-0.22272 0.1866298,-0.45084 0.2682808,-0.68096 0.069904,-0.1803 0.1379529,-0.36127 0.2056681,-0.54237 0.073485,-0.18713 0.1297274,-0.38029 0.1932188,-0.57088 0.041476,-0.14397 0.093137,-0.28444 0.1526268,-0.42183 0.061614,-0.13335 0.1103841,-0.27179 0.1611758,-0.40942 0.157918,-0.39997 0.225611,-0.32943 0.8745336,-0.61473 0.023647,-0.0102 0.023225,0.0462 0.034842,0.0693 0.011247,0.13668 0.019914,0.27193 0.041276,0.40774 0.026097,0.14376 0.029085,0.28953 0.03043,0.43514 0.00141,0.18945 0.028165,0.37755 0.043655,0.56623 0.012524,0.17707 0.017273,0.3544 0.019543,0.53185 0.00182,0.13951 0.00251,0.27908 0.00288,0.41864 -0.00206,0.15083 -0.00248,0.30168 -0.00175,0.45255 1.759e-4,0.16382 -0.00161,0.32766 -0.00165,0.4915 8.06e-4,0.19298 -0.00169,0.38594 -0.00279,0.5789 0.00161,0.18374 0.00215,0.36747 0.00358,0.55119 0.00129,0.18072 -0.00186,0.36143 -0.00318,0.54212 -0.00239,0.21638 -0.00112,0.43275 0.00165,0.64913 0.00215,0.14216 0.00336,0.28435 0.00394,0.42655 -8.064e-4,0.13561 -9.408e-4,0.2712 -6.272e-4,0.40684 0.00206,0.13257 0.0089,0.26229 -0.027851,0.39069 -0.043504,0.11436 -0.068938,0.23282 -0.082475,0.35406 0.00161,0.11899 -0.029358,0.23471 -0.038118,0.35245 0.00313,0.0181 0.00175,0.0398 0.020243,0.0512 0.043164,0.0265 0.1693887,0.0247 0.2181676,0.0278 0.2184524,0.0207 0.4318316,-0.0388 0.6463997,-0.072 0.2138131,-0.0426 0.4244584,-0.0965 0.6338414,-0.15698 0.1910046,-0.0388 0.3834236,-0.0721 0.5765519,-0.0993 0.196867,-0.0477 0.398172,-0.086 0.587092,-0.16062 0.163349,-0.072 0.330059,-0.11771 0.505838,-0.14587 0.107607,-0.0336 0.222942,-0.0394 0.328618,-0.0794 0.04568,-0.0174 0.08929,-0.0398 0.134316,-0.0586 0.127574,-0.0359 0.248745,-0.0878 0.371948,-0.13578 0.118971,-0.0684 0.253522,-0.0878 0.378229,-0.14194 0.02312,-0.009 0.04625,-0.0177 0.06935,-0.0261 0,0 -0.696764,0.54654 -0.696764,0.54654 v 0 c -0.02306,0.008 -0.04611,0.0181 -0.06915,0.0272 -0.127462,0.0461 -0.2587,0.0808 -0.379996,0.1434 -0.121787,0.0494 -0.247349,0.0878 -0.37,0.13487 -0.151229,0.0589 -0.309747,0.0883 -0.468675,0.11956 -0.171346,0.0351 -0.333397,0.0961 -0.4970484,0.15703 -0.1951154,0.062 -0.3958825,0.10861 -0.5968665,0.14671 -0.1906742,0.0301 -0.3823254,0.0596 -0.5692941,0.10782 -0.2097898,0.0576 -0.4214989,0.10871 -0.6359887,0.14571 -0.2211767,0.036 -0.4426429,0.0868 -0.668087,0.0613 -0.1349614,-0.014 -0.2866691,-0.0318 -0.3145755,-0.19053 4.926e-4,-0.12087 0.043719,-0.2364 0.037622,-0.35822 0.010225,-0.12676 0.02835,-0.25289 0.07488,-0.37215 8.48e-5,-1.6e-4 0.039691,-0.10589 0.040347,-0.10996 0.013775,-0.0829 -0.010098,-0.17239 6.271e-4,-0.25595 4.927e-4,-0.13542 1.758e-4,-0.27082 -6.271e-4,-0.40624 6.271e-4,-0.1435 0.00179,-0.28704 0.00394,-0.43054 0.00283,-0.21692 0.00404,-0.43386 0.00165,-0.65081 -0.00129,-0.1796 -0.00448,-0.35924 -0.00317,-0.53886 0.00141,-0.18496 0.00206,-0.36991 0.00358,-0.55487 -0.00112,-0.19202 -0.00358,-0.38405 -0.00279,-0.57607 -4.18e-5,-0.16329 -0.00186,-0.32656 -0.00161,-0.48984 8.062e-4,-0.15038 4.928e-4,-0.30077 -0.00129,-0.45112 6.271e-4,-0.14011 0.00192,-0.28021 0.00224,-0.42033 -6.27e-4,-0.1762 -0.00169,-0.35263 -0.01286,-0.52855 -0.013217,-0.19015 -0.043521,-0.37895 -0.048183,-0.5694 -0.00444,-0.14106 -0.0096,-0.28243 -0.030062,-0.42226 -0.018992,-0.12843 -0.036572,-0.25631 -0.043374,-0.38601 0.2074873,0.24382 0.011565,0.0262 0.7862403,-0.41734 0.00744,-0.004 -0.017618,0.003 -0.023961,0.008 -0.040961,0.0372 -0.047082,0.10059 -0.081663,0.1423 -0.050077,0.13978 -0.1033403,0.27813 -0.1576929,0.41624 -0.066401,0.13338 -0.1187992,0.27378 -0.1626233,0.41611 -0.06638,0.19046 -0.1254379,0.38317 -0.1928611,0.57315 -0.06673,0.18274 -0.1342865,0.3654 -0.2113845,0.54404 -0.083452,0.23169 -0.1659507,0.46375 -0.2711248,0.68675 -0.1002219,0.2528 -0.2316569,0.49056 -0.3392641,0.74019 -0.1353374,0.30608 -0.233677,0.62547 -0.3422602,0.94164 -0.1113592,0.28531 -0.2336252,0.56706 -0.4103401,0.81927 -0.1725183,0.22277 -0.3468311,0.44404 -0.5101216,0.67381 -0.1605727,0.2274 -0.3309761,0.44734 -0.496565,0.67104 -0.1548086,0.20091 -0.2985214,0.41017 -0.4693374,0.59841 -0.1405776,0.17385 -0.2864592,0.34204 -0.4398733,0.50451 0,0 -0.8270412,0.34258 -0.8270412,0.34258 z"
       inkscape:connector-curvature="0" />
    <path
       style="display:inline;fill:#007676;stroke-width:0.04232737"
       id="path4507"
       d="m 6.5611763,289.04283 c 0.1147451,-0.0179 0.2122001,-0.084 0.3204248,-0.12182 0.1214791,-0.0296 0.2325303,-0.0878 0.3518445,-0.12412 0.1384129,-0.0305 0.2739631,-0.0738 0.4119454,-0.10748 0.1700364,-0.0319 0.33928,-0.077 0.5011868,-0.13826 0.1644902,-0.0534 0.3322072,-0.0933 0.4987936,-0.13899 0.1624343,-0.0465 0.321546,-0.10793 0.4788103,-0.17049 0.1343443,-0.0491 0.275257,-0.0777 0.4148547,-0.10705 0.1650791,-0.0261 0.3203436,-0.0916 0.4770416,-0.14742 0.148601,-0.0455 0.296564,-0.0891 0.450148,-0.11453 0.11389,-0.0392 0.230524,-0.0661 0.34586,-0.10039 0.118349,-0.0255 0.237017,-0.0382 0.35497,-0.0651 0.123247,-0.0175 0.240288,-0.0579 0.36299,-0.0788 0,0 -0.70911,0.53647 -0.70911,0.53647 v 0 c -0.12067,0.0268 -0.239889,0.0596 -0.361916,0.0804 -0.117124,0.0242 -0.23758,0.0323 -0.351606,0.0705 -0.1147277,0.0341 -0.2315354,0.0622 -0.3477545,0.0903 -0.148804,0.0313 -0.29443,0.076 -0.438838,0.12333 -0.159408,0.0569 -0.3197522,0.11241 -0.4869074,0.14204 -0.1362895,0.0339 -0.2752636,0.0586 -0.4051124,0.11458 -0.1599597,0.0571 -0.3161776,0.12573 -0.4826601,0.16238 -0.1665522,0.0432 -0.3322971,0.0898 -0.4955057,0.14455 -0.1669717,0.0528 -0.3362018,0.0968 -0.5072132,0.13446 -0.1370158,0.0388 -0.2754376,0.0726 -0.4115063,0.11484 -0.1163822,0.0435 -0.2320316,0.0892 -0.350167,0.12795 -0.1087202,0.0472 -0.2166006,0.096 -0.3351954,0.11346 0,0 0.7146223,-0.54107 0.7146223,-0.54107 z"
       inkscape:connector-curvature="0" />
    <path
       style="display:inline;fill:#007676;stroke-width:0.04232737"
       id="path4509"
       d="m 7.9987821,284.29914 c 0.1555001,0.004 0.3111343,0.003 0.4666879,0.002 0.1406472,-0.0276 0.2827982,-0.0442 0.4258437,-0.0519 0.028219,-8.8e-4 0.056535,-0.006 0.084657,-0.002 0.015902,9.9e-4 0.1845898,0.0367 0.1977192,0.0391 0.1077517,0.0209 0.2155741,0.0365 0.3244807,0.0499 0.1911425,0.0223 0.3836838,0.0247 0.5758494,0.0282 0.185591,0.002 0.371174,1.2e-4 0.556757,-10e-4 0.137686,-0.002 0.275377,-9.9e-4 0.413065,-8.9e-4 0.136175,1.5e-4 0.272351,-9.1e-4 0.408523,-10e-5 0.137897,3.2e-4 0.275793,-1.5e-4 0.413686,-4.3e-4 0.06068,-0.009 0.127329,0.0115 0.187558,-3.2e-4 0.05627,-0.0113 0.118695,-0.0472 0.173534,-0.066 0.120616,-0.0336 0.249324,-0.0522 0.362278,-0.10827 0.06434,-0.0351 0.09992,-0.036 0.171193,-0.022 0,0 -0.719118,0.52154 -0.719118,0.52154 v 0 c -0.05315,0.0121 -0.103135,0.0281 -0.152952,0.0509 -0.12082,0.0353 -0.242573,0.0669 -0.362959,0.10332 -0.124569,0.0411 -0.246982,0.0522 -0.378205,0.0432 -0.137449,-3.2e-4 -0.274898,-8.9e-4 -0.412347,-4.4e-4 -0.136098,8.9e-4 -0.272198,-3.1e-4 -0.4083,-2e-5 -0.137102,3.2e-4 -0.274197,9e-4 -0.4112974,-1.3e-4 -0.1842183,-8.7e-4 -0.3684398,-0.002 -0.5526523,-0.003 -0.1937376,-0.002 -0.3877326,-0.0102 -0.5797233,-0.0382 -0.1999654,-0.0288 -0.4008005,-0.0822 -0.6036358,-0.0663 -0.1438135,0.0134 -0.2860973,0.0397 -0.4302899,0.047 -0.1579899,-8.6e-4 -0.3160493,-0.002 -0.4739925,0.002 0,0 0.7236388,-0.52573 0.7236388,-0.52573 z"
       inkscape:connector-curvature="0" />
  </g>
</svg>